<?xml version="1.0" standalone="no"?>
<!DOCTYPE svg PUBLIC "-//W3C//DTD SVG 20010904//EN"
 "http://www.w3.org/TR/2001/REC-SVG-20010904/DTD/svg10.dtd">
<svg version="1.0" xmlns="http://www.w3.org/2000/svg"
 width="1200.000000pt" height="1200.000000pt" viewBox="0 0 1200.000000 1200.000000"
 preserveAspectRatio="xMidYMid meet">
<metadata>
Created by potrace 1.11, written by Peter Selinger 2001-2013
</metadata>
<g transform="translate(0.000000,1200.000000) scale(0.100000,-0.100000)"
fill="#000000" stroke="none">
<path d="M5665 11089 c-38 -3 -108 -9 -155 -13 -47 -3 -94 -8 -105 -10 -11 -2
-50 -7 -87 -10 -37 -4 -77 -9 -90 -11 -13 -2 -41 -6 -63 -10 -744 -109 -1457
-380 -2070 -788 -111 -73 -245 -168 -271 -192 -7 -5 -24 -19 -40 -30 -39 -28
-206 -166 -289 -238 -116 -101 -434 -424 -544 -552 -109 -127 -295 -370 -378
-495 -86 -129 -169 -263 -186 -300 -4 -8 -17 -31 -29 -50 -50 -82 -200 -397
-258 -540 -82 -204 -127 -340 -210 -640 -25 -91 -83 -383 -96 -485 -3 -27 -8
-57 -9 -66 -3 -15 -19 -151 -29 -249 -28 -258 -28 -862 0 -1077 2 -18 6 -51 8
-75 5 -48 15 -130 21 -168 2 -14 7 -47 10 -75 4 -27 8 -57 10 -65 2 -8 7 -31
10 -50 18 -106 60 -299 87 -395 17 -60 32 -119 35 -130 8 -33 70 -225 97 -300
134 -378 349 -793 591 -1140 46 -66 87 -124 92 -130 5 -5 29 -37 53 -70 25
-33 55 -71 66 -85 12 -14 50 -59 84 -100 168 -203 448 -488 649 -660 36 -30
81 -69 100 -86 68 -59 326 -251 431 -321 296 -197 624 -369 930 -488 208 -82
464 -162 665 -210 111 -26 356 -74 410 -81 30 -3 133 -17 149 -20 10 -2 44 -6
75 -9 31 -4 70 -8 86 -10 237 -27 812 -27 1100 -1 63 6 157 17 190 21 17 3 46
7 65 9 19 2 62 9 95 15 33 5 76 12 95 15 267 39 785 189 1027 297 24 10 45 19
47 19 9 0 182 81 308 145 254 128 537 305 758 474 51 38 185 145 210 166 160
138 219 193 365 340 175 175 208 210 310 330 33 39 62 72 65 75 8 7 137 174
186 240 208 280 419 649 558 975 26 61 51 119 56 130 5 11 20 54 35 95 15 41
33 91 41 110 56 145 163 564 199 780 3 19 8 42 10 50 2 8 7 39 10 69 4 30 8
61 10 70 1 9 6 43 9 76 4 33 9 76 11 95 33 258 39 900 10 1125 -2 17 -7 64
-11 105 -3 41 -8 84 -10 95 -2 11 -6 38 -9 60 -3 22 -7 54 -10 70 -21 161 -95
496 -142 650 -151 495 -321 872 -576 1275 -59 92 -215 320 -226 330 -3 3 -26
32 -51 65 -57 75 -58 77 -176 215 -279 329 -602 632 -938 882 -120 89 -370
258 -382 258 -3 0 -18 9 -34 20 -106 75 -460 252 -685 342 -301 120 -744 242
-1025 283 -75 10 -103 14 -155 21 -27 3 -61 7 -75 9 -14 2 -59 6 -100 10 -41
4 -91 9 -110 11 -60 8 -731 11 -805 3z m610 -2948 c324 -45 607 -152 877 -332
102 -68 90 -58 198 -151 130 -112 134 -116 234 -228 285 -322 454 -657 535
-1060 21 -106 24 -124 38 -260 14 -138 8 -485 -11 -585 -2 -11 -9 -54 -16 -95
-51 -326 -203 -680 -409 -953 -304 -405 -689 -681 -1125 -808 -218 -64 -367
-84 -626 -84 -285 0 -482 31 -705 112 -38 14 -79 28 -90 31 -36 10 -234 111
-302 154 -185 114 -442 337 -563 487 -19 24 -50 62 -68 84 -112 136 -252 387
-325 582 -42 113 -99 320 -112 410 -3 23 -7 51 -10 64 -20 106 -27 460 -11
626 4 50 9 92 11 95 2 3 6 27 9 54 4 27 9 52 11 55 1 3 6 24 9 46 34 218 169
541 319 765 274 409 666 730 1077 880 86 32 274 83 343 94 20 3 53 9 72 12
103 16 178 20 355 19 107 -1 236 -8 285 -14z"/>
</g>
</svg>
